<?xml version='1.0' encoding='utf-8'?>
<!DOCTYPE svg PUBLIC '-//W3C//DTD SVG 1.1//EN' 'http://www.w3.org/Graphics/SVG/1.1/DTD/svg11.dtd'>
<svg version="1.1" xmlns="http://www.w3.org/2000/svg" viewBox="0 0 512 512" xmlns:xlink="http://www.w3.org/1999/xlink" enable-background="new 0 0 512 512">
  <g>
    <g>
      <path d="m307.5,249.8h-53.1c-66.9,0-73.8,98.4-67.6,104.7 16.7,15.6 53,26.5 94.7,26.5s76-10.4 91.6-25c6.3-5.3 1.2-106.2-65.6-106.2zm51,91.6c-12.5,11.5-42.7,18.7-77,18.7s-64.5-7.3-77-18.7c-1-3.1 4.8-71.8 51-71.8h53.1c45.7-0.1 51,68.6 49.9,71.8z"/>
      <path d="m280.5,243.5c31.2,0 57.3-25 56.2-56.2 0-31.2-25-56.2-56.2-56.2s-56.2,25-56.2,56.2 24.9,56.2 56.2,56.2zm0-91.6c20.8,0 36.4,15.6 36.4,35.4s-16.7,35.4-36.4,35.4-36.5-15.6-36.5-35.4 16.7-35.4 36.5-35.4z"/>
      <path d="m441.8,11.3h-330c-25,0-44.8,19.8-44.8,44.8v91.6h-41.6v20.8h41.6v77h-41.6v20.8h41.6v77h-41.6v20.8h41.6v91.6c0,25 19.8,44.8 44.8,44.8h329c25,0 44.8-19.8 45.8-44.8v-399.6c0-25-19.8-44.8-44.8-44.8zm24,444.6c0,12.5-10.4,23.9-23.9,23.9h-330c-12.5,0-23.9-10.4-23.9-23.9v-91.6h39.6v-20.8h-39.7v-77h39.6v-20.8h-39.6v-77h39.6v-20.8h-39.6v-91.8c0-12.5 10.4-23.9 23.9-23.9h330c12.5,0 23.9,10.4 23.9,23.9v399.8z"/>
    </g>
  </g>
</svg>
