<?xml version="1.0" encoding="iso-8859-1"?>
<!-- Generator: Adobe Illustrator 19.1.0, SVG Export Plug-In . SVG Version: 6.00 Build 0)  -->
<svg xmlns="http://www.w3.org/2000/svg" xmlns:xlink="http://www.w3.org/1999/xlink" version="1.1" id="Capa_1" x="0px" y="0px" viewBox="0 0 333.129 333.129" style="enable-background:new 0 0 333.129 333.129;" xml:space="preserve" width="512px" height="512px">
<g>
	<path d="M320.268,133.591h-28.381c-2.886-10.893-7.211-21.344-12.905-31.183l20.405-20.405c5-5.013,5-13.162-0.006-18.175   L270.923,35.37c-4.852-4.852-13.316-4.865-18.182,0l-20.264,20.264c-10.007-5.861-20.656-10.302-31.787-13.252V12.857   c0-7.089-5.765-12.854-12.854-12.854h-40.251c-7.089,0-12.854,5.765-12.854,12.854v29.525   c-11.311,2.995-22.108,7.519-32.224,13.496L81.19,34.56c-4.859-4.859-13.316-4.859-18.175,0L34.557,63.018   c-5.013,5.013-5.013,13.162,0,18.175l21.646,21.646c-5.585,9.724-9.827,20.032-12.674,30.752H12.854   C5.765,133.591,0,139.356,0,146.445v40.245c0,7.089,5.765,12.854,12.854,12.854h30.669c2.95,11.118,7.391,21.781,13.259,31.787   l-21.414,21.408c-2.429,2.429-3.766,5.662-3.76,9.1c0,3.432,1.337,6.658,3.76,9.075l28.464,28.471   c4.859,4.859,13.316,4.859,18.175,0l21.556-21.556c9.833,5.694,20.277,10.019,31.177,12.905v29.538   c0,7.089,5.765,12.854,12.854,12.854h40.251c7.089,0,12.854-5.765,12.854-12.854v-29.538c10.726-2.841,21.029-7.089,30.74-12.667   l20.502,20.502c4.865,4.852,13.31,4.846,18.175-0.006l28.458-28.458c5.013-5.006,5.013-13.169,0-18.175l-20.167-20.167   c5.977-10.116,10.495-20.919,13.496-32.231h28.374c7.089,0,12.854-5.765,12.854-12.854v-40.245   C333.122,139.356,327.351,133.591,320.268,133.591z M320.268,186.69h-38.587l-1.118,5.032   c-2.956,13.342-8.239,25.964-15.701,37.507l-2.815,4.364l27.436,27.436l-28.464,28.458l-27.668-27.674l-4.345,2.725   c-11.215,7.044-23.381,12.05-36.138,14.878l-5.032,1.118l0.013,39.744h-40.264v-39.744l-5.032-1.118   c-12.931-2.866-25.219-7.95-36.543-15.122l-4.351-2.757l-28.747,28.76l-28.464-28.471l28.657-28.644l-2.796-4.357   c-7.346-11.472-12.552-23.959-15.463-37.102l-1.118-5.032H12.854v-40.245h40.881l1.118-5.032   c2.821-12.751,7.834-24.91,14.878-36.151l2.725-4.338L43.645,72.106l28.458-28.458l28.587,28.587l4.364-2.815   c11.543-7.462,24.158-12.744,37.501-15.707l5.032-1.118V12.857h40.251v39.737l5.032,1.112c13.162,2.918,25.643,8.124,37.096,15.463   l4.357,2.796l27.507-27.507l28.464,28.464l-27.597,27.597l2.751,4.345c7.166,11.331,12.256,23.625,15.122,36.549l1.118,5.032   h38.587v40.245H320.268z M167.708,100.416c-36.479,0-66.151,29.673-66.151,66.151c0,36.472,29.673,66.139,66.151,66.139   c36.472,0,66.145-29.666,66.145-66.139C233.853,130.089,204.181,100.416,167.708,100.416z M167.708,219.852   c-29.39,0-53.298-23.908-53.298-53.285c0-29.39,23.908-53.298,53.298-53.298c29.383,0,53.291,23.908,53.291,53.298   C221,195.945,197.098,219.852,167.708,219.852z" fill="#454545"/>
</g>
<g>
</g>
<g>
</g>
<g>
</g>
<g>
</g>
<g>
</g>
<g>
</g>
<g>
</g>
<g>
</g>
<g>
</g>
<g>
</g>
<g>
</g>
<g>
</g>
<g>
</g>
<g>
</g>
<g>
</g>
</svg>
