<?xml version="1.0" encoding="iso-8859-1"?>
<!-- Generator: Adobe Illustrator 19.0.0, SVG Export Plug-In . SVG Version: 6.00 Build 0)  -->
<svg xmlns="http://www.w3.org/2000/svg" xmlns:xlink="http://www.w3.org/1999/xlink" version="1.1" id="Capa_1" x="0px" y="0px" viewBox="0 0 512.001 512.001" style="enable-background:new 0 0 512.001 512.001;" xml:space="preserve" width="512px" height="512px">
<g>
	<g>
		<g>
			<path d="M507.36,84.64C456.125,37.037,390.831,7.338,321.28,0H190.72C121.17,7.338,55.876,37.037,4.64,84.64     C1.645,87.66-0.024,91.747,0,96v160c0,8.837,7.163,16,16,16h80v224c0,8.837,7.163,16,16,16h288c8.837,0,16-7.163,16-16V272h80     c8.837,0,16-7.163,16-16V96C512.025,91.747,510.355,87.66,507.36,84.64z M208,32h96v16c0,26.51-21.49,48-48,48     c-26.51,0-48-21.49-48-48V32z M480,240h-64v-80h-32v320H128V160H96v80H32V102.72c40.712-35.722,90.58-59.382,144-68.32V48     c0,44.183,35.817,80,80,80s80-35.817,80-80V34.4c53.438,8.881,103.321,32.548,144,68.32V240z" fill="#e91e63"/>
			<path d="M256,320c-26.51,0-48-21.49-48-48h-32c0,44.183,35.817,80,80,80s80-35.817,80-80h-32C304,298.51,282.51,320,256,320z" fill="#e91e63"/>
			<rect x="208" y="208" width="32" height="32" fill="#e91e63"/>
			<rect x="272" y="208" width="32" height="32" fill="#e91e63"/>
		</g>
	</g>
</g>
<g>
</g>
<g>
</g>
<g>
</g>
<g>
</g>
<g>
</g>
<g>
</g>
<g>
</g>
<g>
</g>
<g>
</g>
<g>
</g>
<g>
</g>
<g>
</g>
<g>
</g>
<g>
</g>
<g>
</g>
</svg>
